<svg width="32" height="32" viewBox="0 0 32 32" fill="none" xmlns="http://www.w3.org/2000/svg">
<mask id="mask0_602_343" style="mask-type:alpha" maskUnits="userSpaceOnUse" x="8" y="8" width="16" height="16">
<path d="M16.9997 9.33331C16.9997 8.78103 16.552 8.33331 15.9997 8.33331C15.4474 8.33331 14.9997 8.78103 14.9997 9.33331V15H9.33301C8.78072 15 8.33301 15.4477 8.33301 16C8.33301 16.5523 8.78072 17 9.33301 17H14.9997V22.6666C14.9997 23.2189 15.4474 23.6666 15.9997 23.6666C16.552 23.6666 16.9997 23.2189 16.9997 22.6666V17H22.6663C23.2186 17 23.6663 16.5523 23.6663 16C23.6663 15.4477 23.2186 15 22.6663 15H16.9997V9.33331Z" fill="#006FFD"/>
</mask>
<g mask="url(#mask0_602_343)">
<rect x="8" y="8" width="16" height="16" fill="#9BA5B7"/>
</g>
</svg>
